<svg width="200" height="200" viewBox="0 0 66 75" fill="none" xmlns="http://www.w3.org/2000/svg">
<path d="M31.9282 0.051631C31.7338 0.0745611 31.4878 0.13762 31.3906 0.189214C31.2819 0.240808 31.1961 0.252273 31.1732 0.22361C31.1446 0.172016 30.6584 0.24654 30.0292 0.401321C29.8863 0.435717 29.7089 0.458648 29.6289 0.452915C29.5545 0.447183 29.36 0.481578 29.1999 0.527439C28.8281 0.630627 28.5764 0.676488 28.2275 0.716616C28.0731 0.733814 27.89 0.773941 27.8271 0.808337C27.7642 0.842733 27.5068 0.90006 27.2551 0.940187C26.3342 1.08924 24.8528 1.38733 24.8356 1.43319C24.8242 1.45612 24.7041 1.47905 24.5725 1.47905C24.4409 1.47905 24.3094 1.50199 24.2808 1.53065C24.2465 1.55931 24.1092 1.59371 23.9662 1.61091C23.8232 1.62237 23.6459 1.65677 23.5658 1.6797C23.4857 1.70263 23.3084 1.73702 23.1654 1.74849C23.0224 1.76569 22.8794 1.80581 22.8394 1.83448C22.7993 1.86314 22.7479 1.87461 22.7136 1.85741C22.6621 1.82301 22.3589 1.87461 21.2779 2.10391C20.9804 2.1727 20.3856 2.29309 19.9623 2.38481C19.173 2.54532 19.0242 2.59692 19.0757 2.68291C19.0929 2.71157 19.0757 2.7517 19.0414 2.77463C19.0071 2.79183 18.9556 2.77463 18.927 2.7345C18.8927 2.67144 18.8355 2.67144 18.6181 2.72877C18.4751 2.7689 18.2063 2.79756 18.0175 2.79756C17.8231 2.79756 17.6172 2.83196 17.5428 2.87782C17.4742 2.91794 17.2111 2.98674 16.9594 3.02113C16.3874 3.11285 15.9584 3.19884 15.844 3.25617C15.7925 3.28483 15.5923 3.31923 15.3864 3.34216C15.1862 3.35936 14.9746 3.40522 14.9174 3.43388C14.8545 3.46828 14.7687 3.48548 14.7115 3.47974C14.5227 3.46254 14.4712 3.48548 14.4712 3.58293C14.4712 3.66319 14.4598 3.66892 14.4198 3.60586C14.3854 3.55427 14.3225 3.53707 14.2367 3.56573C14.1624 3.58866 13.8306 3.65172 13.4989 3.71478C12.5322 3.89822 12.2748 3.95555 12.1719 4.00714C12.1147 4.03581 11.9774 4.05874 11.863 4.05874C11.6742 4.05874 11.1423 4.16766 10.719 4.29378C10.6218 4.32244 10.4902 4.34537 10.4273 4.34537C10.3644 4.34537 10.1127 4.39696 9.86103 4.46002C9.61508 4.52881 9.29477 4.58614 9.15177 4.59761C8.86006 4.62054 8.37387 4.73519 8.21943 4.81545C8.16224 4.84411 8.0936 4.84984 8.07072 4.83264C8.02496 4.80971 7.16698 4.97596 6.43484 5.1594C6.309 5.18807 5.99441 5.25112 5.73702 5.29125C5.4739 5.33711 5.00487 5.4231 4.696 5.48616C4.38141 5.55495 4.07254 5.60655 4.00962 5.60655C3.9467 5.60655 3.8609 5.64094 3.82086 5.68107C3.78083 5.71547 3.67215 5.7556 3.57491 5.76133C3.16308 5.78426 2.34514 5.91611 2.34514 5.96197C2.34514 5.99063 2.29366 5.99637 2.23074 5.97917C2.16211 5.95624 2.11635 5.9677 2.11635 6.00783C2.11635 6.04223 2.04771 6.07089 1.96191 6.05943C1.87039 6.05369 1.76172 6.05943 1.71596 6.07662C1.6702 6.09382 1.48716 6.13968 1.31557 6.17981C1.14397 6.21994 0.972376 6.27153 0.943776 6.3002C0.863698 6.36326 0.38895 6.52377 0.280273 6.52377C0.142996 6.52377 0 6.71295 0 6.89639C0 7.11996 0.480468 7.57857 0.657784 7.52698C0.720702 7.50978 0.81794 7.47539 0.875138 7.45819C0.943776 7.43526 0.972376 7.45819 0.972376 7.52698C0.972376 7.6015 1.00669 7.6187 1.11537 7.59004C1.21261 7.56711 1.25837 7.57857 1.26409 7.62443C1.26409 7.66456 1.28697 7.64163 1.32129 7.56711C1.38421 7.40659 1.50432 7.45819 1.45284 7.62443C1.42424 7.72762 1.43568 7.73909 1.56724 7.70469C1.65304 7.68176 1.77316 7.69896 1.84751 7.73909C1.91615 7.77348 2.07059 7.79641 2.19071 7.79068C2.31082 7.78495 2.4481 7.80788 2.49386 7.84801C2.5625 7.8996 2.60825 7.8996 2.71693 7.84227C2.83133 7.77921 2.88853 7.77921 2.99149 7.83654C3.06012 7.87094 3.18596 7.91107 3.26604 7.92253C3.3404 7.92826 3.43763 7.95119 3.47195 7.97412C3.50627 7.99705 3.74079 8.02572 3.99246 8.03718C4.27273 8.05438 4.50153 8.09451 4.58161 8.15184C4.65596 8.1977 4.78752 8.23209 4.87904 8.22063C4.96484 8.20916 5.03347 8.22063 5.03347 8.24356C5.03347 8.26649 5.13071 8.30088 5.25083 8.31235C5.36523 8.32955 5.50822 8.35821 5.56542 8.38114C5.63406 8.41554 5.66266 8.40407 5.66266 8.34101C5.66266 8.26649 5.7027 8.27222 5.95437 8.36394C6.21176 8.4614 6.26324 8.46713 6.34332 8.39834C6.452 8.30088 6.57784 8.32955 6.57784 8.44993C6.57784 8.50153 6.64075 8.53019 6.77231 8.53019C6.88099 8.53019 6.98395 8.55312 7.00682 8.58178C7.02398 8.61045 7.12694 8.62191 7.24134 8.60471C7.35574 8.58752 7.46441 8.59898 7.48729 8.62764C7.53305 8.70217 7.85908 8.78242 7.81332 8.7079C7.74469 8.60471 7.89912 8.57605 8.0364 8.66777C8.11648 8.71937 8.33955 8.77669 8.53403 8.79389C8.76282 8.81682 8.92298 8.86268 8.96874 8.92574C9.01449 8.98307 9.05453 8.99453 9.08313 8.9544C9.15749 8.84548 9.33481 8.81109 9.43204 8.89134C9.56932 9.006 9.98687 9.12065 10.1299 9.08625C10.2042 9.06906 10.29 9.07479 10.3301 9.10918C10.3701 9.13785 10.5131 9.17798 10.6504 9.19517C10.7819 9.20664 10.965 9.24677 11.0508 9.28116C11.1366 9.31556 11.2681 9.33276 11.3482 9.30983C11.4226 9.29263 11.577 9.31556 11.6914 9.36142C11.8001 9.40728 11.9831 9.44741 12.0975 9.44741C12.2062 9.44741 12.5322 9.48754 12.8125 9.53913C13.0985 9.58499 13.3559 9.60792 13.3845 9.59073C13.4188 9.57353 13.4417 9.57926 13.4417 9.60792C13.4417 9.67098 13.7505 9.72831 14.2768 9.75697C14.4712 9.76844 14.6886 9.8143 14.763 9.85443C14.8373 9.89455 15.0032 9.93468 15.129 9.94615C15.8097 9.98628 16.3874 10.0723 16.4045 10.1353C16.416 10.1697 16.5189 10.1927 16.6333 10.1927C16.8507 10.1927 17.5028 10.3188 17.6972 10.399C17.7888 10.4334 17.8002 10.422 17.7716 10.3417C17.7373 10.2557 17.7487 10.2442 17.8288 10.2786C18.2463 10.4506 18.5953 10.5251 19.1901 10.5595C19.4933 10.5767 20.5171 10.7315 20.9232 10.8232C21.0548 10.8576 21.255 10.8806 21.3637 10.8806C21.4666 10.8806 21.5753 10.9035 21.5925 10.9379C21.6096 10.9666 21.7355 10.9952 21.867 10.9952C21.9986 10.9952 22.3418 11.0353 22.622 11.0869C22.908 11.1385 23.2913 11.1959 23.48 11.2073C23.6688 11.2245 23.869 11.2704 23.9262 11.3105C24.0005 11.3621 24.0863 11.3678 24.2122 11.3334C24.3323 11.299 24.4009 11.3048 24.4123 11.3392C24.4238 11.3678 24.5839 11.3965 24.767 11.3965C24.9843 11.3965 25.1216 11.4252 25.1674 11.4825C25.2131 11.5398 25.3104 11.557 25.4934 11.5398C25.6307 11.5284 25.8194 11.5456 25.8995 11.5799C25.9853 11.6143 26.1111 11.6373 26.1855 11.6315C26.2599 11.6315 26.3685 11.6545 26.4257 11.6831C26.4887 11.7175 26.7346 11.7577 26.9806 11.7749C27.2265 11.7921 27.4496 11.8265 27.4839 11.8608C27.5125 11.8895 27.6383 11.9124 27.7699 11.9124C27.8957 11.9124 28.0673 11.9526 28.1531 11.9927C28.2904 12.0672 28.319 12.0672 28.3591 11.9927C28.4048 11.9124 28.4334 11.9124 28.6336 11.9984C28.7766 12.0558 28.8624 12.0672 28.8738 12.0271C28.8853 11.9984 28.9196 11.9698 28.9482 11.9698C28.9825 11.9698 28.9882 11.9927 28.9711 12.0271C28.9482 12.0615 29.0168 12.0902 29.1255 12.0959C29.4801 12.1131 29.5087 12.1188 29.5488 12.1589C29.5717 12.1819 29.7147 12.1991 29.8634 12.1991C30.0121 12.1991 30.1494 12.222 30.1665 12.2449C30.1837 12.2679 30.3038 12.2908 30.4411 12.2851C30.5784 12.2793 30.7614 12.308 30.8586 12.3481C30.9616 12.3882 31.0645 12.3997 31.1217 12.3711C31.1789 12.3367 31.3219 12.3539 31.4935 12.4054C31.648 12.4513 31.8367 12.4857 31.9168 12.4742C31.9969 12.4685 32.0884 12.48 32.1284 12.5029C32.22 12.5602 33.4383 12.5029 33.5698 12.4341C33.627 12.3997 33.9645 12.3481 34.3249 12.308C34.6852 12.2736 35.017 12.222 35.0627 12.1991C35.1085 12.1761 35.303 12.136 35.4917 12.1131C35.6805 12.0959 35.8864 12.0672 35.9436 12.0615C36.0065 12.0558 36.0694 12.0156 36.0809 11.9812C36.0923 11.9468 36.1781 11.9354 36.2868 11.9526C36.3955 11.9698 36.4927 11.9583 36.5156 11.9239C36.5384 11.8895 36.6414 11.878 36.7501 11.8952C36.8931 11.9182 36.9846 11.901 37.059 11.8322C37.1161 11.7749 37.202 11.7519 37.2591 11.7749C37.3163 11.7978 37.4136 11.7863 37.4822 11.7519C37.5509 11.7175 37.7225 11.6774 37.8655 11.6602C38.3173 11.6086 38.8264 11.5169 38.9522 11.4653C38.998 11.4481 39.0895 11.4309 39.1524 11.4252C39.4441 11.4137 39.9818 11.322 39.9818 11.2876C39.9818 11.2647 40.0848 11.2589 40.2106 11.2704C40.3479 11.2876 40.4909 11.2589 40.5709 11.2131C40.7254 11.1099 41.0228 11.0468 41.3088 11.0525C41.4232 11.0525 41.5376 11.0296 41.5548 10.9952C41.5776 10.9551 41.6634 10.9436 41.755 10.9666C41.8751 10.9952 41.9494 10.9723 42.0295 10.892C42.0981 10.8232 42.1668 10.8003 42.1954 10.829C42.224 10.8576 42.3269 10.8519 42.4413 10.8175C42.55 10.7888 42.6987 10.7487 42.7674 10.743C42.8417 10.7315 42.9332 10.6914 42.979 10.657C43.0362 10.6054 43.122 10.5997 43.2593 10.6398C43.4023 10.6799 43.4938 10.6742 43.6082 10.6111C43.694 10.5653 43.8942 10.5194 44.0601 10.5022C44.2259 10.485 44.4433 10.4277 44.552 10.3818C44.6892 10.3188 44.7522 10.313 44.7865 10.3589C44.8322 10.4334 45.0153 10.3818 45.0153 10.2958C45.0153 10.2614 45.0954 10.25 45.2212 10.2786C45.3813 10.3073 45.4443 10.2901 45.5015 10.2156C45.5644 10.1239 45.5873 10.1239 45.6673 10.1869C45.7474 10.2557 45.7817 10.25 45.8904 10.1411C46.0334 10.0149 46.1592 9.98054 46.1592 10.078C46.1592 10.1755 46.348 10.1411 46.4853 10.0149C46.5882 9.91175 46.6283 9.90029 46.6969 9.95761C46.7827 10.0321 47.0744 9.98628 47.0744 9.90029C47.0744 9.87162 47.1602 9.84869 47.2632 9.84869C47.3661 9.84869 47.4805 9.82003 47.5149 9.78563C47.5606 9.73977 47.6064 9.74551 47.6922 9.7971C47.7894 9.85443 47.8294 9.84869 47.961 9.74551C48.0468 9.67672 48.144 9.63659 48.1841 9.65952C48.2184 9.68245 48.3099 9.71111 48.3843 9.72258C48.5044 9.73977 48.5158 9.72831 48.4472 9.65378C48.3843 9.57353 48.4071 9.56206 48.6302 9.56206C48.7675 9.56206 48.9105 9.5334 48.9505 9.49327C49.002 9.44168 49.0363 9.44168 49.0878 9.49327C49.1793 9.58499 49.3566 9.57926 49.391 9.48754C49.4081 9.44741 49.5225 9.41301 49.6541 9.41301C49.7856 9.40728 49.9058 9.37862 49.9286 9.34996C49.9458 9.31556 50.0144 9.29836 50.0773 9.30983C50.1345 9.32129 50.2203 9.29836 50.2547 9.2697C50.2947 9.24104 50.3462 9.2181 50.3691 9.22384C50.3977 9.22957 50.432 9.22957 50.4491 9.22384C50.5006 9.20664 50.9868 9.15505 51.1355 9.15505C51.2156 9.15505 51.4272 9.09772 51.6045 9.03466C51.8391 8.94867 51.9992 8.92574 52.1651 8.9544C52.3481 8.98307 52.3939 8.9716 52.3939 8.90281C52.3939 8.79962 52.6284 8.78816 52.7256 8.88561C52.7714 8.93147 52.8114 8.93147 52.8629 8.89134C52.903 8.85695 53.0345 8.82829 53.1604 8.82829C53.2805 8.82255 53.4177 8.78816 53.4692 8.74803C53.515 8.7079 53.6008 8.67924 53.6637 8.6907C53.7209 8.70217 53.7838 8.66777 53.801 8.61618C53.8353 8.53592 53.8868 8.52446 54.0927 8.55885C54.2586 8.58178 54.373 8.57032 54.4302 8.53019C54.4702 8.49006 54.5617 8.47286 54.6246 8.49006C54.6818 8.50726 54.7619 8.48433 54.8019 8.43847C54.842 8.38687 54.9793 8.35821 55.1509 8.35821C55.3053 8.35821 55.4883 8.32955 55.5513 8.29515C55.6313 8.24929 55.6828 8.24929 55.7286 8.29515C55.7686 8.33528 55.8372 8.31808 55.9459 8.23782C56.0889 8.13464 56.1118 8.13464 56.1576 8.22063C56.1976 8.28942 56.2319 8.30088 56.3177 8.25502C56.4321 8.19196 56.6266 8.11171 56.6952 8.10597C56.7124 8.10024 56.7467 8.08304 56.7696 8.06585C56.7867 8.04292 56.9183 8.04292 57.0556 8.06011C57.2386 8.07731 57.313 8.06585 57.313 8.01425C57.313 7.96839 57.3759 7.95119 57.5017 7.97412C57.599 7.98559 57.7477 7.97412 57.8278 7.93973C57.9078 7.91107 58.0051 7.87667 58.0451 7.8652C58.0909 7.85947 58.1767 7.80215 58.2339 7.75055C58.3311 7.66456 58.3711 7.65883 58.4569 7.71616C58.6114 7.81361 58.8001 7.80215 58.8001 7.69896C58.8001 7.6531 58.8516 7.61297 58.9145 7.61297C58.9774 7.61297 59.0289 7.6359 59.0289 7.67029C59.0289 7.73335 59.2005 7.74482 59.3378 7.69323C59.3836 7.67603 59.4064 7.62443 59.3893 7.57284C59.3607 7.50405 59.3836 7.49258 59.4865 7.52698C59.5666 7.55564 59.6295 7.54418 59.6581 7.49258C59.6981 7.43526 59.7267 7.43526 59.7897 7.49258C59.8411 7.53271 59.8926 7.53844 59.9098 7.50405C59.9269 7.47539 59.9899 7.46392 60.0528 7.48112C60.1157 7.49832 60.2072 7.45819 60.2816 7.37793C60.3731 7.27474 60.4188 7.26328 60.4703 7.31487C60.5676 7.41233 60.7735 7.40086 60.8593 7.29767C60.8993 7.24608 60.9737 7.22315 61.0194 7.24035C61.0652 7.25755 61.111 7.22888 61.1281 7.16009C61.1624 7.01678 61.3569 6.96518 61.4255 7.07983C61.4885 7.19449 61.7745 7.13716 61.7745 7.01104C61.7745 6.89639 61.8259 6.90212 61.9575 7.02251C62.049 7.10276 62.089 7.1085 62.1748 7.05117C62.2378 7.01104 62.3178 6.98238 62.3522 6.98238C62.3865 6.98238 62.478 6.93079 62.5581 6.86773C62.7297 6.73014 62.8612 6.71868 62.8612 6.83906C62.8612 6.94798 62.8612 6.94798 63.0843 6.83333C63.1815 6.78747 63.2502 6.71868 63.233 6.69001C63.1758 6.60403 63.3646 6.63269 63.4561 6.73014C63.559 6.8276 63.7478 6.7932 63.7993 6.66708C63.8164 6.62122 63.8736 6.5811 63.9251 6.5811C63.9823 6.5811 64.0738 6.54097 64.131 6.48364C64.2283 6.39765 64.2397 6.39765 64.3484 6.49511C64.4456 6.5811 64.4742 6.58683 64.56 6.51804C64.703 6.40338 64.7488 6.33459 64.7087 6.27727C64.6916 6.2486 64.7373 6.23714 64.8117 6.2486C64.9032 6.26007 64.9547 6.31166 64.9661 6.39192C64.9776 6.46644 65.0062 6.52377 65.0348 6.52377C65.1206 6.52377 65.1606 6.40912 65.0977 6.33459C65.0519 6.27727 65.0863 6.26007 65.2464 6.25434C65.3894 6.2486 65.4866 6.20847 65.5496 6.12248C65.6354 6.00783 65.6582 6.0021 65.7669 6.07089C65.8642 6.13395 65.9042 6.13395 65.9614 6.07662C66.0129 6.02503 66.0129 6.00783 65.9614 6.00783C65.9213 6.00783 65.8355 5.95624 65.7669 5.89318C65.5896 5.73267 65.418 5.7384 65.458 5.90464C65.4752 5.97917 65.4752 6.0021 65.458 5.96197C65.4409 5.92758 65.4008 5.91038 65.3665 5.92758C65.3379 5.94477 65.2979 5.91038 65.2807 5.84732C65.2521 5.72693 65.1091 5.66387 64.8517 5.66387C64.7373 5.66387 64.6916 5.69827 64.6744 5.78999L64.6515 5.92184L64.6401 5.78999C64.6344 5.704 64.6115 5.66961 64.5657 5.69827C64.5314 5.7212 64.4742 5.69827 64.4399 5.65241C64.4056 5.60655 64.2855 5.55495 64.1654 5.53202C63.988 5.50336 63.9537 5.52056 63.9251 5.62375C63.8965 5.7384 63.8908 5.7384 63.7535 5.58935C63.6734 5.50336 63.559 5.42884 63.4904 5.42884C63.233 5.41164 63.1701 5.41737 63.0671 5.46323C63.0042 5.4919 62.9184 5.48043 62.8498 5.4403C62.7926 5.40591 62.7182 5.38871 62.6896 5.40591C62.661 5.4231 62.6267 5.41164 62.6038 5.37724C62.5867 5.34858 62.5066 5.33711 62.4265 5.35431C62.3293 5.37724 62.2778 5.36004 62.2549 5.29699C62.232 5.23393 62.1577 5.20526 62.0376 5.21673C61.9403 5.22246 61.8202 5.20526 61.7745 5.1766C61.7287 5.14794 61.5285 5.13074 61.3226 5.13074C61.0309 5.13074 60.9222 5.10781 60.8307 5.02182C60.7563 4.9473 60.6591 4.91863 60.5618 4.93583C60.4703 4.9473 60.4017 4.93583 60.4017 4.90717C60.4017 4.88424 60.3045 4.86131 60.1901 4.86131C60.0699 4.86131 59.9269 4.82118 59.8697 4.78105C59.7954 4.72372 59.7153 4.71226 59.5895 4.75239C59.4522 4.79251 59.395 4.78105 59.3435 4.70653C59.2978 4.64347 59.2177 4.62627 59.0804 4.64347C58.9717 4.66066 58.8402 4.64347 58.7715 4.59761C58.7086 4.55748 58.5141 4.51162 58.3311 4.49442C58.1538 4.48295 57.9593 4.44282 57.8964 4.40843C57.8278 4.37403 57.6905 4.34537 57.5818 4.34537C57.4788 4.34537 57.2558 4.30524 57.0899 4.25365C56.884 4.19632 56.7639 4.18486 56.7295 4.21925C56.6666 4.28231 56.5351 4.25365 56.3978 4.14473C56.2948 4.06447 55.2252 3.92115 55.1394 3.97275C55.1051 3.99568 55.025 3.96702 54.9678 3.91542C54.8935 3.84663 54.7676 3.81797 54.5846 3.81797C54.4359 3.8237 54.2872 3.80077 54.2528 3.77211C54.2185 3.74344 54.0355 3.70331 53.8467 3.68038C53.6637 3.65745 53.4692 3.62306 53.4292 3.60013C53.3834 3.57146 53.2805 3.5772 53.2061 3.60586C53.0974 3.64599 53.0402 3.64026 52.9659 3.57146C52.8972 3.50841 52.7085 3.46254 52.4396 3.44535C52.2109 3.42815 51.9649 3.37656 51.8963 3.33069C51.8162 3.2791 51.7075 3.2619 51.5988 3.28483C51.5073 3.30203 51.4158 3.2963 51.3986 3.2619C51.37 3.21604 51.0097 3.14725 50.6093 3.11285C50.5521 3.10712 50.4892 3.08992 50.472 3.06699C50.4491 3.04406 50.3347 3.04406 50.2203 3.06126C50.0659 3.08419 49.9629 3.06699 49.8543 2.9982C49.7513 2.92941 49.6827 2.91221 49.6426 2.95234C49.6026 2.99247 49.5054 2.98674 49.3452 2.92941C49.2136 2.88355 48.9906 2.83196 48.8476 2.81476C48.7046 2.79756 48.3957 2.74597 48.1612 2.7001C47.9267 2.65998 47.349 2.55679 46.8742 2.47653C46.4052 2.39628 45.8733 2.30455 45.7017 2.27016C45.5301 2.24149 45.3127 2.21283 45.2212 2.21856C45.1297 2.21856 45.0038 2.1899 44.9352 2.15551C44.8723 2.11538 44.6606 2.06378 44.4719 2.04085C44.1401 1.99499 43.7169 1.92047 43.4137 1.85741C43.3336 1.84021 42.8589 1.75422 42.3555 1.67396C41.8522 1.59371 41.4289 1.51918 41.4118 1.50772C41.3374 1.46186 40.4337 1.28988 40.1591 1.27268C39.9875 1.25548 39.8159 1.22109 39.7759 1.18669C39.7358 1.1523 39.5757 1.12363 39.4155 1.1179C39.2611 1.11217 39.1124 1.0835 39.0895 1.06057C39.0666 1.03764 38.9522 1.02044 38.8378 1.02044C38.7234 1.02044 38.609 0.997514 38.5804 0.968851C38.5461 0.940187 38.3173 0.882861 38.0599 0.848466C37.8025 0.81407 37.5165 0.762477 37.4136 0.733814C37.3106 0.705151 37.1962 0.693686 37.1505 0.710883C37.1104 0.728081 37.0189 0.710883 36.9503 0.676488C36.8759 0.636359 36.6872 0.584765 36.527 0.561835C36.3668 0.538904 36.1724 0.498776 36.0923 0.481578C35.9436 0.44145 35.4803 0.361193 34.9483 0.275204C34.7767 0.24654 34.5308 0.200679 34.4049 0.172016C33.833 0.0287008 33.5584 3.71933e-05 32.9464 3.71933e-05C32.586 3.71933e-05 32.1284 0.0229673 31.9282 0.051631ZM60.1157 5.31992C60.1157 5.34858 60.0928 5.37724 60.0585 5.37724C60.0299 5.37724 60.0013 5.34858 60.0013 5.31992C60.0013 5.28552 60.0299 5.26259 60.0585 5.26259C60.0928 5.26259 60.1157 5.28552 60.1157 5.31992ZM62.2606 5.60655C62.2778 5.63521 62.2549 5.66387 62.2092 5.66387C62.1577 5.66387 62.1176 5.63521 62.1176 5.60655C62.1176 5.57215 62.1405 5.54922 62.1691 5.54922C62.2034 5.54922 62.2435 5.57215 62.2606 5.60655ZM62.8097 5.64668C62.8784 5.73267 62.8784 5.7384 62.7869 5.704C62.7297 5.68107 62.6553 5.66387 62.6267 5.66387C62.5924 5.66387 62.5867 5.63521 62.6038 5.60655C62.6553 5.52056 62.7239 5.53776 62.8097 5.64668ZM63.3474 5.66387C63.4504 5.70974 63.4447 5.71547 63.3074 5.71547C63.2159 5.7212 63.1472 5.69254 63.1472 5.66387C63.1472 5.59508 63.193 5.59508 63.3474 5.66387ZM63.6849 5.95624C63.6391 6.0365 63.4904 6.01356 63.4904 5.92758C63.4904 5.87598 63.5304 5.85878 63.6048 5.87598C63.6677 5.89318 63.702 5.92758 63.6849 5.95624ZM64.8632 5.92758C64.8632 5.97344 64.8403 5.99637 64.806 5.97917C64.7774 5.96197 64.7488 5.92184 64.7488 5.88745C64.7488 5.85878 64.7774 5.83585 64.806 5.83585C64.8403 5.83585 64.8632 5.87598 64.8632 5.92758ZM64.6344 6.08809C64.6344 6.20847 64.52 6.26007 64.4456 6.18554C64.3941 6.13395 64.3999 6.10529 64.4628 6.06516C64.5829 5.9849 64.6344 5.99637 64.6344 6.08809ZM65.0634 6.12248C65.0462 6.15115 65.0005 6.17981 64.9719 6.17981C64.9375 6.17981 64.9318 6.15115 64.949 6.12248C64.9661 6.08809 65.0119 6.06516 65.0405 6.06516C65.0748 6.06516 65.0805 6.08809 65.0634 6.12248ZM62.7468 6.14542C62.7468 6.16261 62.7239 6.19128 62.6896 6.20847C62.661 6.22567 62.6324 6.21421 62.6324 6.18554C62.6324 6.15115 62.661 6.12248 62.6896 6.12248C62.7239 6.12248 62.7468 6.13395 62.7468 6.14542ZM63.948 6.17981C63.948 6.20847 63.908 6.23714 63.8622 6.23714C63.8164 6.23714 63.7764 6.20847 63.7764 6.17981C63.7764 6.14542 63.8164 6.12248 63.8622 6.12248C63.908 6.12248 63.948 6.14542 63.948 6.17981ZM62.1748 6.29446C62.1748 6.32313 62.1634 6.35179 62.152 6.35179C62.1348 6.35179 62.1062 6.32313 62.089 6.29446C62.0719 6.26007 62.0833 6.23714 62.1119 6.23714C62.1462 6.23714 62.1748 6.26007 62.1748 6.29446ZM64.4056 6.29446C64.4056 6.32313 64.3827 6.35179 64.3484 6.35179C64.3198 6.35179 64.2912 6.32313 64.2912 6.29446C64.2912 6.26007 64.3198 6.23714 64.3484 6.23714C64.3827 6.23714 64.4056 6.26007 64.4056 6.29446ZM61.2597 6.50084C61.2597 6.5467 61.2311 6.56963 61.2025 6.55243C61.1681 6.5295 61.1567 6.48937 61.1739 6.46071C61.2253 6.38045 61.2597 6.39765 61.2597 6.50084ZM62.232 6.81613C62.232 6.86773 62.0547 6.93652 62.0204 6.90212C62.0032 6.88492 62.0032 6.85053 62.0261 6.82187C62.0604 6.76454 62.232 6.75307 62.232 6.81613ZM56.3978 7.95693C56.3978 7.98559 56.3749 8.01425 56.3406 8.01425C56.312 8.01425 56.2834 7.98559 56.2834 7.95693C56.2834 7.92253 56.312 7.8996 56.3406 7.8996C56.3749 7.8996 56.3978 7.92253 56.3978 7.95693ZM53.3949 8.64484C53.412 8.6735 53.412 8.70217 53.3834 8.70217C53.3605 8.70217 53.2747 8.71937 53.1947 8.73656C53.0574 8.77096 53.0517 8.77096 53.1661 8.68497C53.3033 8.57605 53.3491 8.56458 53.3949 8.64484Z" fill="#0074DF"/>
<path d="M51.9077 9.04619C51.9249 9.07485 51.9535 9.10352 51.9706 9.10352C51.9821 9.10352 51.9935 9.07485 51.9935 9.04619C51.9935 9.01179 51.9649 8.98886 51.9306 8.98886C51.902 8.98886 51.8906 9.01179 51.9077 9.04619Z" fill="#0074DF"/>
<path d="M51.2614 10.9612C51.21 10.9899 50.9983 11.0243 50.7924 11.03C50.5808 11.0415 50.2605 11.0931 50.0717 11.1447C49.8887 11.1963 49.5455 11.2593 49.3167 11.288C49.0879 11.3167 48.8477 11.3683 48.7905 11.3969C48.7333 11.4313 48.6017 11.4542 48.5045 11.4542C48.4072 11.4542 48.27 11.4829 48.2013 11.523C48.1327 11.5574 48.0011 11.5861 47.9096 11.5804C47.8238 11.5689 47.7151 11.5918 47.6751 11.6262C47.6293 11.6606 47.4177 11.695 47.2003 11.7008C46.983 11.7122 46.7656 11.7466 46.7199 11.7867C46.6741 11.8211 46.6226 11.8383 46.5998 11.8211C46.5826 11.8039 46.3824 11.8269 46.1536 11.8785C45.9305 11.9301 45.7303 11.9645 45.7189 11.9473C45.7075 11.9358 45.6102 11.9473 45.513 11.9816C45.3414 12.039 44.981 12.0963 44.3919 12.1708C44.2546 12.188 44.1231 12.2167 44.0945 12.2339C44.0659 12.2511 43.8599 12.2855 43.6311 12.3141C43.4024 12.3428 42.9676 12.4173 42.6702 12.4804C42.3728 12.5377 41.9266 12.6065 41.6807 12.6294C41.3661 12.6581 41.2231 12.6982 41.1888 12.7613C41.143 12.8358 41.1201 12.8415 41.0458 12.7785C40.9829 12.7269 40.8856 12.7154 40.7426 12.7441C40.6225 12.767 40.4223 12.7957 40.2965 12.8014C39.8046 12.8415 39.2383 12.8989 38.5805 12.9734C38.203 13.0193 37.5109 13.0823 37.0362 13.1167C36.5671 13.1511 35.9208 13.2142 35.6062 13.2543C35.2916 13.3002 34.9598 13.3345 34.8626 13.3403C34.7711 13.346 34.4107 13.3747 34.0618 13.3976C33.0723 13.4721 30.3897 13.4664 29.2285 13.3976C28.6451 13.3575 28.0445 13.3174 27.8844 13.3116C27.2724 13.2715 26.1455 13.174 25.7108 13.1167C24.2294 12.9333 22.9882 12.8186 22.9481 12.8587C22.931 12.8759 22.8852 12.8587 22.8452 12.8243C22.7708 12.767 22.0558 12.6638 21.3923 12.6237C21.1864 12.6122 20.9576 12.5778 20.8776 12.5434C20.7975 12.5148 20.6087 12.4747 20.4486 12.4632C19.7679 12.3887 18.8241 12.2683 17.989 12.1422C17.7717 12.1078 17.5086 12.0734 17.417 12.0562C17.3198 12.0447 17.1768 12.0218 17.1025 12.0046C17.0224 11.9874 16.8336 11.9587 16.6735 11.9358C16.519 11.9186 16.233 11.8785 16.0443 11.8555C15.3522 11.7523 14.8946 11.6893 14.6429 11.6606C13.9051 11.5861 13.2701 11.5001 13.0471 11.4485C12.9098 11.4199 12.4694 11.374 12.069 11.3568L11.3426 11.3224L11.3025 11.4829C11.2282 11.7695 11.3254 19.3251 11.3998 19.4054C11.4856 19.4857 14.0023 19.5831 14.8431 19.5373C15.1577 19.5201 15.5295 19.5201 15.6725 19.543C15.8155 19.5659 16.4447 19.5717 17.0739 19.5545C17.703 19.5373 19.3275 19.5201 20.6774 19.5086C22.033 19.4971 23.6002 19.4742 24.1665 19.4513C25.259 19.4111 28.8911 19.3481 29.5088 19.3595C29.709 19.3595 29.9035 19.3423 29.9378 19.3194C29.9721 19.2908 30.2581 19.2908 30.5727 19.3137C30.8873 19.3366 31.1619 19.3423 31.179 19.3309C31.1962 19.3194 31.711 19.2965 32.323 19.285C33.9246 19.2392 35.2001 19.1876 35.2458 19.1589C35.2687 19.1417 35.7949 19.1188 36.4184 19.1016C37.0419 19.0901 37.6653 19.0614 37.8083 19.05C37.9513 19.0328 38.4032 19.0213 38.8093 19.0271C39.7702 19.0385 39.5758 19.0385 41.1659 19.0099C41.9324 18.9927 42.5673 18.9697 42.5844 18.9525C42.6245 18.9181 43.5339 18.9468 43.574 18.9869C43.5911 19.0041 43.6311 18.9984 43.6655 18.964C43.7055 18.9353 43.8199 18.9353 43.94 18.9583C44.0887 18.9927 44.1974 18.9869 44.3061 18.9296C44.4033 18.878 44.4834 18.8665 44.5234 18.9009C44.5978 18.964 46.1021 18.9525 46.2051 18.8837C46.2451 18.8608 46.2737 18.8665 46.2737 18.8952C46.2737 18.9583 47.595 18.9468 47.8295 18.8837C47.9096 18.8608 48.0297 18.8665 48.0926 18.9009C48.167 18.9411 48.27 18.9411 48.413 18.9009C48.5731 18.8551 48.6475 18.8608 48.7104 18.9124C48.7733 18.964 48.8248 18.964 48.9392 18.9124C49.0536 18.8608 49.1337 18.8608 49.2881 18.9181C49.4482 18.9755 49.494 18.9755 49.5283 18.9124C49.5626 18.8608 49.6198 18.8493 49.7114 18.878C49.9001 18.9411 50.2204 18.9239 50.3062 18.8493C50.3577 18.8035 50.392 18.8035 50.4206 18.8493C50.4721 18.9353 50.7123 18.9181 50.7924 18.8207C50.8496 18.7519 50.8782 18.7462 50.9526 18.8035C51.0498 18.8895 51.9364 18.9181 51.9364 18.8379C51.9364 18.7691 52.0908 18.7805 52.2224 18.8608C52.3139 18.9181 52.3597 18.9181 52.4512 18.8608C52.5141 18.8264 52.617 18.792 52.68 18.792C52.8115 18.792 52.8172 18.729 52.7143 18.4309C52.6685 18.3162 52.6571 18.2016 52.6857 18.1844C52.76 18.1442 52.7486 17.8519 52.6742 17.7773C52.6285 17.7315 52.6285 17.6799 52.6742 17.5996C52.7658 17.4276 52.7543 17.1869 52.6514 17.1869C52.6056 17.1869 52.5656 17.1582 52.5656 17.1296C52.5656 17.0952 52.5942 17.0722 52.6228 17.0722C52.7257 17.0722 52.6914 16.6251 52.5827 16.562C52.4912 16.5104 52.4912 16.5047 52.5713 16.4703C52.6571 16.4416 52.6628 16.3442 52.6342 15.6792C52.6228 15.2607 52.5827 14.9053 52.5484 14.8881C52.5141 14.8652 52.5198 14.7734 52.5656 14.6416C52.6113 14.4983 52.617 14.4066 52.577 14.3607C52.5427 14.3206 52.5141 14.0339 52.5084 13.7186C52.5027 13.4033 52.4855 12.8874 52.4741 12.5721C52.4569 12.2568 52.4397 11.9071 52.4397 11.7982C52.4397 11.2536 52.3883 10.9956 52.2853 10.9956C52.2281 10.9956 52.1652 10.9784 52.1423 10.9498C52.0794 10.8924 51.3758 10.8982 51.2614 10.9612Z" fill="#0074DF"/>
<path d="M61.66 18.8376C61.66 18.8662 61.5113 18.8892 61.334 18.8892C60.7563 18.8892 60.4589 18.9121 60.4589 18.958C60.4589 18.9866 60.2873 19.0095 60.0814 19.0153C59.8697 19.021 59.6467 19.0554 59.578 19.0955C59.5151 19.1357 59.3435 19.1701 59.2005 19.1701C58.7658 19.1815 58.2396 19.2503 58.0851 19.3076C57.9993 19.342 57.8449 19.365 57.7305 19.365C57.6047 19.365 57.496 19.3994 57.4559 19.4567C57.3988 19.5369 57.3587 19.5427 57.1814 19.4854C57.0327 19.4338 56.9412 19.4338 56.8611 19.4739C56.7982 19.5083 56.6552 19.5369 56.5408 19.5369C56.3063 19.5369 55.9402 19.6745 55.9402 19.7605C55.9402 19.7949 55.9116 19.8236 55.8773 19.8236C55.8487 19.8236 55.8372 19.7949 55.8601 19.7548C55.8887 19.7089 55.8258 19.7032 55.6199 19.7376C55.4654 19.7605 55.1737 19.7892 54.9792 19.8006C54.7791 19.8178 54.5617 19.8522 54.5045 19.8866C54.4416 19.9153 54.3386 19.9268 54.2814 19.9096C54.2185 19.8866 54.087 19.9096 53.9897 19.9612C53.8868 20.0128 53.7495 20.0357 53.6465 20.0128C53.555 19.9956 53.4463 20.007 53.4063 20.0414C53.3662 20.0758 53.1375 20.1217 52.8915 20.1446C52.5769 20.1733 52.4511 20.2077 52.4511 20.2593C52.4511 20.3567 52.1822 20.3682 52.1536 20.2765C52.1365 20.2249 52.0964 20.2306 51.9935 20.2822C51.9191 20.3223 51.7247 20.3624 51.5702 20.3739C50.9353 20.4198 50.575 20.4943 50.4434 20.6089C50.3748 20.6605 50.3118 20.672 50.2146 20.6376C50.1059 20.5917 49.3909 20.6835 49.3909 20.7408C49.3909 20.7465 49.2766 20.7637 49.1336 20.7752C48.5787 20.8211 48.43 20.844 48.39 20.9128C48.3614 20.9586 48.287 20.9701 48.1955 20.9472C48.0639 20.9128 47.6464 20.9816 47.4176 21.0733C47.3718 21.0905 47.2288 21.1134 47.103 21.1192C46.9772 21.1249 46.7312 21.1593 46.5596 21.1937C46.388 21.2338 46.1707 21.2682 46.0734 21.2797C45.6387 21.3255 45.3585 21.3886 45.3585 21.4344C45.3585 21.4631 45.2841 21.4688 45.1869 21.4516C45.0896 21.4287 44.9809 21.4459 44.9352 21.4803C44.8894 21.5204 44.7579 21.5434 44.632 21.5376C44.5119 21.5319 44.3003 21.5606 44.1573 21.6007C44.0143 21.6408 43.8084 21.6752 43.694 21.681C43.5796 21.6867 43.4423 21.7211 43.3965 21.7669C43.3451 21.8071 43.2535 21.8243 43.1963 21.8071C43.1391 21.7841 42.9104 21.8128 42.693 21.8587C42.3098 21.9446 41.4118 22.0937 41.0114 22.1453C40.9027 22.1568 40.5824 22.2084 40.2964 22.2599C40.0161 22.3115 39.5528 22.3861 39.2668 22.4262C38.5347 22.5408 38.037 22.6326 37.8311 22.6956C37.7339 22.7243 37.5794 22.7472 37.4879 22.7472C37.3163 22.7472 36.7615 22.8447 36.0351 22.9995C35.1142 23.1944 33.6156 23.3262 32.3801 23.3262C31.7223 23.3262 31.0817 23.3033 30.9616 23.2689C30.8415 23.2402 30.4239 23.1829 30.0292 23.1485C29.6346 23.1141 29.2342 23.0625 29.1369 23.0281C29.0397 22.9995 28.891 22.9765 28.8052 22.9765C28.7194 22.9765 28.5421 22.9536 28.4105 22.9249C28.279 22.8963 27.9758 22.8447 27.7413 22.8103C26.6088 22.6555 25.6307 22.5007 24.9386 22.3803C24.6697 22.3345 24.2236 22.2714 23.9376 22.237C23.6573 22.2026 23.2169 22.1396 22.9652 22.0994C22.7135 22.0536 22.3017 21.9962 22.05 21.9733C21.7984 21.9561 21.4781 21.8988 21.3351 21.8529C21.1921 21.8128 20.8088 21.7497 20.4771 21.7153C20.1453 21.6867 19.7221 21.6351 19.5333 21.6064C19.3445 21.5778 19.0471 21.5376 18.8755 21.5147C18.3836 21.4574 17.8974 21.3829 17.5885 21.3198C17.2511 21.2453 15.8383 21.0446 14.9574 20.9357C14.6142 20.8956 14.1852 20.8325 14.0136 20.8039C13.842 20.7695 13.4188 20.7179 13.0699 20.6835C12.7267 20.6491 12.3606 20.5975 12.2576 20.5631C12.0918 20.5115 11.0393 20.3567 10.4959 20.3109C10.3701 20.2994 10.0727 20.2478 9.83814 20.2019C9.60363 20.1503 9.25472 20.0987 9.06596 20.0815C8.87721 20.0643 8.63125 20.0242 8.52257 19.9956C8.4139 19.9726 7.97347 19.9038 7.5502 19.8522C6.85238 19.7663 5.89716 19.6172 5.11926 19.4796C4.96482 19.451 4.61591 19.3994 4.34708 19.365C4.07825 19.3306 3.78081 19.2732 3.68358 19.2446C3.58634 19.2159 3.4605 19.2045 3.40902 19.2274C3.35754 19.2446 3.21455 19.2216 3.08871 19.1701C2.86564 19.0783 2.85992 19.0841 2.68832 19.2388C2.48241 19.428 2.47669 19.4911 2.5396 21.7153C2.5968 23.7504 2.63112 26.6167 2.61968 27.6773C2.60824 28.1359 2.60824 28.755 2.61396 29.0531C2.61968 29.3512 2.63684 31.7761 2.654 34.4418C2.67116 37.1075 2.69404 40.9254 2.7112 42.9261C2.72836 44.9268 2.75696 48.5784 2.77984 51.0377C2.80272 53.5314 2.84276 55.5551 2.87136 55.6067C2.89995 55.6697 2.98575 55.7098 3.08871 55.7098C3.18023 55.7098 3.26603 55.7328 3.28319 55.7614C3.30034 55.7844 3.4891 55.8245 3.70073 55.8417C3.91809 55.8646 4.16976 55.8933 4.26128 55.9105C4.35852 55.9277 4.59875 55.9506 4.80467 55.9563C5.01058 55.9678 5.2165 55.9965 5.26226 56.0251C5.30801 56.0538 5.47389 56.071 5.63405 56.071C5.78848 56.0653 5.9372 56.0767 5.9658 56.0939C5.98868 56.1054 6.18887 56.1283 6.40623 56.1398C6.6293 56.157 6.8581 56.1914 6.92101 56.2258C6.97821 56.2544 7.06401 56.2716 7.10405 56.2544C7.14409 56.2372 7.36144 56.2487 7.5788 56.2831C8.05355 56.3519 8.78569 56.4436 9.16892 56.4837C9.31763 56.5009 9.54643 56.5353 9.6837 56.5697C9.88962 56.6156 10.719 56.7245 11.2395 56.7704C11.3367 56.7818 11.6456 56.8162 11.9259 56.8506C12.2119 56.8908 12.658 56.9424 12.9269 56.9767C13.1957 57.0111 13.699 57.0742 14.0422 57.1143C14.3911 57.1602 14.9174 57.2233 15.2148 57.2519C15.5122 57.2806 15.9012 57.3207 16.0728 57.3436C16.2444 57.3608 16.5018 57.3838 16.6448 57.3952C16.7878 57.4067 16.9822 57.4296 17.0738 57.4468C17.2797 57.4927 17.4398 57.5099 18.5609 57.6303C19.7106 57.7564 19.8079 57.785 19.9623 58.043C20.0309 58.1577 20.111 58.387 20.1339 58.5532C20.1796 58.8399 20.2197 59.0118 20.397 59.6367C20.437 59.7915 20.4885 59.9978 20.5114 60.0953C20.5343 60.187 20.6372 60.4737 20.7459 60.7259C20.8489 60.9781 20.9347 61.2017 20.9347 61.2246C20.9347 61.2533 21.0205 61.4081 21.1291 61.5743C21.2321 61.7348 21.3923 61.9985 21.4781 62.1476C21.6782 62.5145 22.4333 63.2425 22.7307 63.3629C22.8565 63.4202 23.1025 63.5234 23.2684 63.6037C23.6402 63.7756 24.1206 63.8559 24.767 63.8674C25.7965 63.8788 26.0825 63.8387 26.6831 63.6266C27.2608 63.4145 27.8042 62.9845 28.5306 62.1476C28.7308 61.9125 28.748 61.9011 28.9425 61.9584C29.0855 61.9985 29.2113 62.1017 29.3657 62.3024C29.9377 63.0533 30.8586 63.6209 31.7223 63.7527C32.3801 63.8559 33.6213 63.7871 34.159 63.6266C34.8854 63.4088 35.0513 63.2998 35.7891 62.5489L36.487 61.8438L36.71 61.9297C36.8359 61.9813 37.0075 62.1189 37.099 62.2336C37.3507 62.5489 37.8769 63.0533 38.037 63.1279C38.1171 63.1623 38.3059 63.2654 38.4546 63.3572C38.7978 63.5635 39.5928 63.7413 40.1248 63.7413C40.7025 63.7413 41.5319 63.6495 41.692 63.575C41.8064 63.5291 41.9723 63.4776 42.0581 63.4718C42.2183 63.4604 42.6129 63.2941 42.6701 63.2196C42.6873 63.2024 42.8131 63.0935 42.9561 62.9845C43.2936 62.7323 44.1001 61.8438 44.1001 61.7348C44.1001 61.7062 44.163 61.6087 44.2374 61.517C44.3117 61.4253 44.4032 61.2476 44.4376 61.1157C44.4719 60.9839 44.5806 60.7316 44.6721 60.5539C44.7693 60.3705 44.8437 60.1698 44.8437 60.101C44.8437 60.0322 44.8665 59.952 44.8894 59.9176C44.918 59.8889 44.9695 59.7112 45.0095 59.522C45.0496 59.3329 45.1068 59.0978 45.1411 59.0061C45.1697 58.9086 45.2155 58.6507 45.2441 58.4328C45.3241 57.785 45.3585 57.636 45.4385 57.5557C45.5072 57.4812 46.348 57.3723 46.96 57.3494C47.1316 57.3436 47.3032 57.3207 47.3432 57.2978C47.3776 57.2748 47.5663 57.2462 47.7608 57.229C47.9553 57.2175 48.1555 57.1717 48.2012 57.1373C48.2641 57.0799 48.2927 57.0799 48.3271 57.1373C48.3671 57.1946 48.4014 57.1946 48.4987 57.143C48.5673 57.1086 48.7846 57.0799 48.9791 57.0742C49.1736 57.0742 49.3624 57.0513 49.3909 57.0283C49.4539 56.9825 49.9858 56.908 50.2318 56.908C50.3176 56.908 50.4034 56.885 50.4205 56.8506C50.4434 56.822 50.4834 56.8105 50.512 56.8334C50.5406 56.8506 50.6093 56.8334 50.655 56.7933C50.7008 56.7589 50.7523 56.7417 50.7752 56.7589C50.7923 56.7818 50.8495 56.7646 50.8953 56.7245C50.9639 56.6729 50.9868 56.6729 51.0039 56.7245C51.0325 56.8048 51.1813 56.822 51.33 56.7646C51.3815 56.7474 51.4043 56.7073 51.3872 56.6729C51.37 56.6443 51.4673 56.6271 51.6331 56.6328C51.7818 56.6385 52.085 56.6099 52.3024 56.5755C52.5197 56.5353 52.8286 56.5067 52.9945 56.5067C53.1661 56.5009 53.372 56.4608 53.4578 56.4207C53.555 56.3691 53.6808 56.3519 53.7781 56.3748C53.8696 56.392 53.9783 56.3806 54.0183 56.3462C54.0584 56.3118 54.2471 56.2716 54.4359 56.2544C54.6246 56.2372 54.9049 56.2028 55.0593 56.1742C55.2138 56.1455 55.3568 56.1341 55.3854 56.1513C55.4082 56.1627 55.4654 56.1455 55.5169 56.1111C55.5627 56.071 55.6771 56.0538 55.7857 56.071C55.9173 56.0882 56.0088 56.0653 56.1061 55.9907C56.1804 55.9334 56.2548 55.8933 56.2777 55.9047C56.2948 55.9162 56.598 55.8933 56.9412 55.8474C57.2901 55.8016 57.6847 55.7442 57.8277 55.727C57.9707 55.7098 58.1137 55.6754 58.1423 55.6468C58.1767 55.6238 58.3826 55.5837 58.5999 55.5608C58.823 55.5379 59.0289 55.4977 59.0689 55.4691C59.109 55.4347 59.1719 55.4347 59.2348 55.4691C59.2977 55.5035 59.3835 55.492 59.4979 55.4404C59.5895 55.3888 59.7382 55.3659 59.8182 55.3831C59.904 55.4003 60.0356 55.3773 60.1157 55.3372C60.1958 55.2914 60.4188 55.257 60.6133 55.2512C60.8478 55.2512 60.9851 55.2226 61.0137 55.171C61.0537 55.1022 61.1853 55.0792 61.8888 54.999C62.2606 54.9589 62.5466 54.8901 62.5867 54.827C62.6095 54.7926 62.6153 54.5461 62.5924 54.2767C62.5752 54.0072 62.5523 53.6576 62.5466 53.5028C62.5123 52.855 62.4608 49.06 62.4322 45.1045C62.4093 42.7885 62.3865 40.3349 62.3693 39.6585C62.3521 38.982 62.3464 38.1623 62.3464 37.8355C62.3521 37.4514 62.3293 37.2164 62.2835 37.159C62.2377 37.1017 62.2377 37.0788 62.2835 37.0788C62.3235 37.0788 62.3464 36.8896 62.3464 36.5055C62.3464 36.024 62.3293 35.9265 62.2492 35.8807C62.1577 35.8291 62.1577 35.8233 62.2377 35.7889C62.3121 35.7603 62.3235 35.6743 62.3121 35.3131C62.3007 35.0724 62.2892 34.5794 62.2949 34.2239C62.2949 33.7653 62.2778 33.5819 62.2263 33.5819C62.1805 33.5819 62.1748 33.5647 62.2263 33.5074C62.2663 33.45 62.2835 33.0774 62.2721 32.3551C62.2606 31.3576 62.2549 31.2716 62.1462 31.1914L62.0318 31.1054L62.1462 31.1283C62.2435 31.1455 62.2606 31.1169 62.2492 30.9162C62.2435 30.7901 62.2377 30.6353 62.2377 30.5723C62.2492 30.3659 62.2492 30.234 62.2377 30.085C62.2377 30.0047 62.232 29.6321 62.2377 29.2538C62.2377 28.8754 62.2206 28.52 62.1977 28.4569C62.1748 28.3996 62.1805 28.3079 62.2091 28.2563C62.2435 28.2047 62.2492 28.0614 62.2263 27.9352C62.2034 27.8091 62.1977 27.6486 62.2149 27.5741C62.2606 27.3677 62.1805 27.0582 62.0719 27.0295C61.9918 27.0066 61.9975 26.9951 62.1062 26.9607C62.2549 26.9091 62.2721 26.7486 62.1462 26.5078C62.0433 26.3129 62.0376 26.2384 62.1291 26.2613C62.232 26.2785 62.2435 25.5218 62.1405 25.4358C62.0433 25.3556 62.0376 25.2638 62.1348 25.2868C62.1805 25.2925 62.2034 25.2122 62.2091 25.0231C62.2091 24.8339 62.192 24.7536 62.1348 24.7536C62.0433 24.7536 62.0376 24.6848 62.1234 24.5989C62.2034 24.5186 62.1977 23.0682 62.1176 23.0453C62.0433 23.0167 62.0433 22.8619 62.1176 22.8619C62.2034 22.8619 62.192 21.3542 62.1062 21.2682C62.0604 21.2223 62.0604 21.1994 62.1005 21.1994C62.1291 21.1994 62.152 21.1421 62.1462 21.0676C62.1405 20.9988 62.1291 20.8956 62.1234 20.8383C62.1234 20.7867 62.0776 20.7408 62.0204 20.7408C61.9403 20.7408 61.9403 20.7293 62.0376 20.6204C62.1291 20.5172 62.1405 20.4026 62.1462 19.7032C62.1462 18.9923 62.1348 18.9064 62.049 18.9064C61.9975 18.9064 61.9346 18.8777 61.9174 18.849C61.8774 18.7802 61.66 18.7745 61.66 18.8376ZM61.2025 19.1357C61.2025 19.1643 61.1739 19.193 61.1395 19.193C61.1109 19.193 61.0995 19.1643 61.1167 19.1357C61.1338 19.1013 61.1624 19.0783 61.1796 19.0783C61.191 19.0783 61.2025 19.1013 61.2025 19.1357ZM60.6019 19.7663C60.619 19.7949 60.6076 19.8236 60.579 19.8236C60.5447 19.8236 60.5161 19.7949 60.5161 19.7663C60.5161 19.7319 60.5275 19.7089 60.539 19.7089C60.5561 19.7089 60.5847 19.7319 60.6019 19.7663ZM61.7744 20.8554C61.7744 20.8841 61.7516 20.9128 61.7172 20.9128C61.6886 20.9128 61.66 20.8841 61.66 20.8554C61.66 20.8211 61.6886 20.7981 61.7172 20.7981C61.7516 20.7981 61.7744 20.8211 61.7744 20.8554ZM51.2213 20.9128C51.2385 20.9414 51.227 20.9701 51.1984 20.9701C51.1641 20.9701 51.1355 20.9414 51.1355 20.9128C51.1355 20.8784 51.1469 20.8554 51.1584 20.8554C51.1755 20.8554 51.2041 20.8784 51.2213 20.9128ZM62.0318 21.7096C62.049 21.7383 62.0376 21.7784 62.0032 21.8013C61.9746 21.8185 61.946 21.7956 61.946 21.7497C61.946 21.6466 61.9804 21.6294 62.0318 21.7096ZM59.1547 22.472C59.1433 22.5294 59.1547 22.5752 59.1776 22.5752C59.2062 22.5752 59.2234 23.0453 59.2119 23.6186C59.2005 24.3925 59.2177 24.6734 59.2691 24.702C59.3206 24.7364 59.3149 24.7708 59.2463 24.8511C59.1719 24.9371 59.1605 25.0001 59.2005 25.1779C59.2234 25.2982 59.2348 25.4817 59.2177 25.5906C59.2005 25.6995 59.2119 25.7855 59.2405 25.7855C59.2691 25.7855 59.3263 25.8543 59.3664 25.9346C59.4236 26.0664 59.4236 26.0836 59.3378 26.0492C59.292 26.032 59.2291 26.0263 59.2005 26.0435C59.1605 26.0721 59.2405 26.3702 59.3321 26.5078C59.3549 26.548 59.3321 26.5881 59.2863 26.611C59.1776 26.6511 59.1776 26.7773 59.292 27.0008C59.3778 27.1671 59.3778 27.1843 59.292 27.2473C59.1776 27.3333 59.1776 27.4709 59.292 27.5856C59.3721 27.6715 59.3721 27.6887 59.2634 27.8263C59.1547 27.9639 59.1547 28.1359 59.2634 28.1359C59.292 28.1359 59.3149 28.1989 59.3149 28.2792C59.3149 28.3595 59.292 28.4225 59.2577 28.4225C59.1719 28.4225 59.1891 28.5486 59.292 28.7607C59.3778 28.9327 59.3778 28.9499 59.2806 29.0244C59.1891 29.0875 59.1891 29.1219 59.2463 29.248C59.2977 29.3627 59.2977 29.4372 59.252 29.5175C59.2177 29.5862 59.2062 29.7296 59.2291 29.8614C59.252 30.0047 59.2463 30.085 59.2062 30.085C59.1261 30.085 59.1261 30.2971 59.2005 30.3258C59.2348 30.3372 59.2749 30.4461 59.2977 30.5665C59.3206 30.7213 59.3149 30.7786 59.2691 30.75C59.2405 30.7328 59.2005 30.75 59.1833 30.7844C59.1547 30.8876 59.2005 31.0595 59.2634 31.0595C59.3435 31.0595 59.3206 31.2315 59.2291 31.329C59.1719 31.3863 59.1605 31.4379 59.1891 31.4837C59.2177 31.5181 59.2577 31.6901 59.2691 31.8621C59.2863 32.0341 59.3149 32.2175 59.3378 32.2691C59.3607 32.3207 59.3263 32.4124 59.2577 32.4927C59.1319 32.6417 59.1147 32.6991 59.2005 32.7507C59.2291 32.7679 59.252 32.9284 59.2463 33.1061C59.2405 33.3125 59.2634 33.4386 59.3035 33.4558C59.4007 33.4844 59.3893 33.5819 59.292 33.5819C59.1662 33.5819 59.1433 33.8513 59.2634 33.9946C59.3435 34.0864 59.3549 34.1322 59.3092 34.1895C59.2749 34.2354 59.2177 34.2526 59.1891 34.2354C59.1204 34.1953 59.1719 34.3959 59.2749 34.608C59.3263 34.7169 59.3263 34.7513 59.2749 34.7685C59.1719 34.8029 59.1833 35.101 59.2863 35.21C59.3321 35.2558 59.3721 35.3074 59.3721 35.3246C59.3721 35.3418 59.3321 35.359 59.2863 35.359C59.1376 35.359 59.1376 36.1386 59.2863 36.3507C59.3321 36.4195 59.3721 36.4998 59.3721 36.5342C59.3721 36.5629 59.3435 36.5457 59.3092 36.4883C59.2749 36.4367 59.2291 36.4023 59.1948 36.4195C59.1204 36.4711 59.1319 36.6259 59.2291 36.8151C59.3378 37.0157 59.3378 37.0043 59.2005 37.0387C59.0975 37.0616 59.0918 37.0903 59.1433 37.2278C59.1776 37.3138 59.1891 37.4227 59.1719 37.4686C59.149 37.5374 59.1547 37.5431 59.2291 37.4801C59.2977 37.4227 59.3149 37.4227 59.3149 37.4973C59.3149 37.5431 59.3492 37.5947 59.3893 37.6119C59.4293 37.6291 59.4179 37.6578 59.3435 37.6865C59.1776 37.7495 59.1376 37.8355 59.2234 37.9387C59.3607 38.0992 59.3721 38.2196 59.252 38.254C59.1204 38.2998 59.109 38.4489 59.2291 38.6037C59.3378 38.747 59.3378 38.7986 59.2291 38.7986C59.109 38.7986 59.1204 39.0795 59.2405 39.2171C59.3378 39.3202 59.3378 39.326 59.2405 39.3776C59.1261 39.4464 59.1147 39.6413 59.2234 39.7674C59.2634 39.819 59.3149 39.9336 59.3378 40.0311C59.3721 40.1859 59.3664 40.1916 59.2977 40.0999C59.252 40.0483 59.2005 40.0024 59.1776 40.0024C59.1547 40.0024 59.1433 40.3636 59.1547 40.805C59.1719 41.4413 59.1891 41.6248 59.2577 41.6649C59.3321 41.7108 59.3321 41.7222 59.252 41.7222C59.1719 41.7222 59.1547 41.8025 59.149 42.2496C59.1433 42.7885 59.1433 43.7057 59.149 43.8146C59.149 43.8433 59.1376 44.0669 59.1261 44.3019C59.1033 44.6 59.1204 44.7777 59.1776 44.8866C59.2806 45.093 59.2806 45.1675 59.1662 45.1217C59.0861 45.093 59.0747 45.1102 59.109 45.2535C59.1376 45.3452 59.1547 45.6261 59.149 45.8784C59.149 46.1306 59.1433 46.658 59.1433 47.0536C59.1433 47.4491 59.1433 47.8332 59.1376 47.9135C59.1376 47.9937 59.1319 48.223 59.1261 48.4294C59.1147 48.6358 59.1261 48.8536 59.149 48.9167C59.1662 48.9797 59.1662 49.0944 59.1376 49.1746C59.1147 49.2549 59.0804 49.4785 59.0632 49.6734C59.0403 49.9428 59.0518 50.0517 59.1147 50.1148C59.2119 50.2065 59.2291 50.2868 59.1433 50.2352C59.109 50.2122 59.0918 50.625 59.0975 51.3989C59.109 52.448 59.0975 52.6142 59.0117 52.7461C58.9317 52.8722 58.8859 52.8894 58.7486 52.8665C58.6571 52.8435 58.5656 52.8607 58.5484 52.8951C58.5256 52.9295 58.4455 52.9582 58.3711 52.9582C58.2968 52.9582 58.2167 52.9868 58.1995 53.0155C58.1824 53.0442 58.0279 53.0728 57.8563 53.0728C57.6047 53.0728 57.5303 53.0958 57.4559 53.1989C57.3759 53.3193 57.3587 53.3193 57.313 53.2333C57.2558 53.1359 57.107 53.1416 56.8725 53.2563C56.7753 53.3021 56.7238 53.3021 56.6552 53.2448C56.5808 53.1817 56.5465 53.1875 56.4493 53.2792C56.3806 53.3423 56.2548 53.3824 56.1404 53.3767C55.9974 53.3709 55.9402 53.3939 55.9402 53.4569C55.9402 53.5142 55.9116 53.5314 55.8429 53.5028C55.6142 53.4111 55.5398 53.4053 55.5055 53.4913C55.4826 53.5544 55.3796 53.5773 55.0994 53.5773C54.8077 53.5773 54.6818 53.606 54.5617 53.6977C54.4244 53.8009 54.3787 53.8066 54.2871 53.7493C54.1956 53.692 54.1441 53.6977 54.0298 53.755C53.9554 53.8009 53.8467 53.8181 53.7895 53.7951C53.7323 53.7722 53.6751 53.7837 53.6522 53.8181C53.6351 53.8467 53.5092 53.8811 53.372 53.8926C53.1775 53.9041 53.126 53.927 53.1031 54.0302C53.0631 54.1792 52.9659 54.2079 52.9659 54.076C52.9659 53.9729 52.7885 53.9614 52.6913 54.0588C52.657 54.0932 52.5026 54.1219 52.3424 54.1104C52.1822 54.1047 52.045 54.1276 52.0221 54.162C51.9935 54.2022 51.8962 54.2136 51.7418 54.1907C51.5759 54.1678 51.5302 54.1735 51.5931 54.2136C51.6617 54.2595 51.6617 54.2881 51.6103 54.3397C51.5531 54.3971 51.5073 54.3971 51.3929 54.334C51.2842 54.2767 51.2213 54.2709 51.1069 54.3225C51.0268 54.3627 50.8838 54.3913 50.7923 54.3913C50.7008 54.3913 50.5635 54.42 50.4834 54.4544C50.3805 54.506 50.3176 54.506 50.2604 54.4601C50.186 54.3971 50.0373 54.4487 50.043 54.5404C50.043 54.569 49.9458 54.5862 49.8257 54.5748C49.6998 54.5633 49.5854 54.5862 49.5625 54.6149C49.5454 54.6493 49.4424 54.678 49.3452 54.678C49.2422 54.678 49.0935 54.7124 49.0077 54.7582C48.9219 54.8041 48.8361 54.8155 48.8075 54.7869C48.7789 54.7582 48.5845 54.7812 48.3442 54.8499C48.1211 54.913 47.8523 54.9646 47.7551 54.9646C47.6521 54.9646 47.5434 55.0047 47.5034 55.0563C47.4519 55.1308 47.4119 55.1366 47.3261 55.0907C47.2517 55.0506 47.1774 55.0506 47.1259 55.085C47.0858 55.1136 46.9715 55.1366 46.8857 55.1366C46.7941 55.1366 46.6683 55.1652 46.5997 55.2054C46.531 55.2455 46.4052 55.2684 46.3194 55.257C46.2393 55.2512 46.1535 55.2684 46.1306 55.3028C46.0677 55.4117 45.9076 55.3659 45.7016 55.1767L45.5014 54.9875V53.3308C45.4957 51.6741 45.4271 45.4714 45.3813 43.184C45.3699 42.5191 45.3585 41.9401 45.3642 41.8942C45.3871 41.4471 45.3241 38.1164 45.2898 38.082C45.2727 38.0648 45.1983 38.0419 45.1239 38.0304C45.0496 38.0247 44.9066 37.9731 44.8151 37.9272C44.695 37.8642 44.4833 37.8298 44.1687 37.8298C43.7683 37.8298 43.6425 37.8527 43.3393 37.9903L42.9847 38.1508L42.9962 38.4604C43.0019 38.6323 43.0076 39.1196 43.0019 39.5438C43.0019 39.968 43.0019 40.3579 43.0019 40.4037C43.0076 40.4496 43.019 41.6993 43.0362 43.184C43.0877 48.5326 43.1105 49.6103 43.1506 49.6791C43.1735 49.7192 43.1735 49.7766 43.1563 49.8052C43.1334 49.8396 43.1163 50.0689 43.1163 50.3097C43.1163 50.5505 43.1163 51.3072 43.1163 51.9836C43.1163 52.6601 43.1163 53.3595 43.1105 53.5314C43.1105 53.7034 43.1163 54.1276 43.122 54.4659C43.1334 55.1767 43.0247 56.6672 42.9504 56.8105C42.9218 56.8621 42.8989 56.9596 42.8989 57.0226C42.8989 57.1774 42.6129 58.0545 42.55 58.0946C42.5214 58.1118 42.4985 58.1691 42.4985 58.2207C42.4985 58.3239 42.1496 58.8227 41.8808 59.1093C41.692 59.3099 41.2859 59.5507 41.1315 59.5507C41.0686 59.5507 41.0056 59.5736 40.9885 59.6023C40.9084 59.7341 39.9303 59.6997 39.65 59.5564C39.5986 59.5278 39.4556 59.459 39.3354 59.4017C39.0666 59.2698 38.6376 58.8571 38.5118 58.6105C38.466 58.5131 38.3917 58.3927 38.3516 58.3468C38.2315 58.215 37.9913 57.4526 37.894 56.9022C37.814 56.478 37.7968 55.6296 37.7796 51.2269C37.7625 48.3778 37.7396 45.2765 37.7167 44.3306C37.6996 43.3847 37.6881 42.5764 37.6881 42.5363C37.7053 42.3528 37.7053 42.1407 37.6767 40.2432C37.6538 38.8444 37.6252 38.1967 37.5794 38.1393C37.5451 38.0935 37.3335 38.0017 37.1104 37.933C36.4984 37.7438 35.8806 37.8011 35.2915 38.1049C35.1256 38.1909 35.1313 37.8527 35.2 44.1586C35.2858 51.6225 35.3029 52.769 35.3258 52.9008C35.3373 52.9811 35.3487 53.8295 35.3487 54.7926C35.3544 56.478 35.3487 56.564 35.2114 57.1258C34.914 58.3182 34.3935 59.1437 33.73 59.4762C33.261 59.7112 33.118 59.7456 32.5746 59.7399C32.1799 59.7399 32.0655 59.7112 31.7338 59.5564C31.3677 59.3787 31.0474 59.1265 30.9044 58.8914C30.8643 58.8284 30.7614 58.6621 30.6813 58.5303C30.4811 58.2035 30.2638 57.6647 30.258 57.4984C30.258 57.4239 30.2294 57.315 30.1951 57.2519C30.1665 57.1889 30.1265 57.0283 30.115 56.8965C30.1036 56.7646 30.0693 56.3347 30.0292 55.9391C29.9949 55.5436 29.9549 54.1391 29.9434 52.8149C29.8805 46.2797 29.8519 43.1439 29.8348 40.8853C29.8176 38.9247 29.7947 38.3916 29.7375 38.2884C29.6918 38.2196 29.543 38.1049 29.4001 38.0361C28.8853 37.7839 27.6383 37.9387 27.4553 38.2826C27.4267 38.3342 27.4153 38.6725 27.4267 39.0336C27.4381 39.3948 27.4667 40.8853 27.4839 42.3528C27.5011 43.8204 27.5297 46.4631 27.5525 48.2288C27.6441 55.641 27.6097 56.9767 27.3237 57.8022C27.1865 58.2093 26.7804 59.0061 26.6545 59.1265C26.0711 59.6883 25.6364 59.8603 24.8127 59.8431C24.4295 59.8316 24.0634 59.6883 23.726 59.4246C23.3599 59.1322 23.1425 58.8972 22.9538 58.5991C22.7765 58.3239 22.4104 57.4755 22.4333 57.3838C22.4447 57.3207 22.3646 57.0111 22.3017 56.8965C22.2731 56.8392 22.2617 56.7761 22.2731 56.7474C22.2903 56.7245 22.2788 56.5468 22.2502 56.3634C22.2216 56.1799 22.1816 55.664 22.1644 55.2226C22.1473 54.7812 22.1187 54.0302 22.1015 53.5601C22.0786 53.0843 22.0672 52.6715 22.0672 52.6429C22.0786 52.4824 22.0672 50.9002 22.05 49.8626C22.0386 48.8708 21.9871 44.6172 21.9356 40.0884C21.9299 39.4578 21.9185 38.7928 21.9128 38.6151L21.907 38.2884L21.5867 38.1336C21.2836 37.9903 21.2264 37.9845 20.7059 38.0132C20.1396 38.0419 19.785 38.1508 19.6363 38.34C19.5791 38.403 19.5676 38.7527 19.5905 39.7731C19.6077 40.5126 19.6305 42.3471 19.6477 43.8433C19.6649 45.3395 19.6935 47.5695 19.7049 48.802C19.7392 51.4906 19.7793 53.6404 19.825 54.4257C19.8536 54.9933 19.8536 55.0047 19.6992 55.1882C19.5333 55.3888 19.5276 55.3888 18.5609 55.2742C18.4351 55.257 18.2406 55.234 18.1319 55.2226C18.0233 55.2168 17.7887 55.1824 17.6171 55.148C17.0166 55.0391 16.2158 54.9187 15.8154 54.8786C15.3692 54.8327 15.3921 54.8385 14.4426 54.678C14.0651 54.6149 13.4988 54.5346 13.1843 54.5003C12.8697 54.4659 12.5665 54.4143 12.515 54.3856C12.4578 54.3569 12.3377 54.334 12.2519 54.334C12.1604 54.334 12.0689 54.3168 12.0517 54.2939C12.0288 54.2767 11.943 54.248 11.8573 54.2423C11.7657 54.2308 11.5369 54.2079 11.3367 54.185C11.1423 54.1678 10.965 54.1276 10.9478 54.099C10.9306 54.0703 10.8334 54.0474 10.7304 54.0474C10.6275 54.0474 10.5245 54.0302 10.5074 54.013C10.4845 53.99 10.3872 53.9671 10.2843 53.9614C10.1813 53.9557 9.92966 53.9155 9.72374 53.8811C9.51783 53.841 9.249 53.8123 9.12316 53.8123C8.99732 53.8123 8.79141 53.7837 8.66557 53.7493C8.53973 53.7149 8.37386 53.6862 8.29378 53.6748C7.20129 53.5716 6.69794 53.4283 6.54922 53.1703C6.29755 52.7575 6.26323 52.4938 6.20603 50.7511C6.19459 50.4014 6.16599 49.7192 6.14883 49.232C6.12595 48.7447 6.10307 46.7039 6.09735 44.7032C6.08592 42.6968 6.06876 41.0286 6.0516 40.9999C6.02872 40.9712 6.00012 40.6789 5.98296 40.3464C5.9658 40.0139 5.93148 39.5094 5.9086 39.2285C5.88572 38.9419 5.87428 38.6094 5.88572 38.4833C5.89716 38.3572 5.90288 38.2139 5.89716 38.168C5.89716 38.1221 5.88572 37.2164 5.87428 36.1616C5.85712 35.1068 5.82852 34.1494 5.80564 34.0348C5.78276 33.9029 5.78848 33.8112 5.82852 33.7825C5.86284 33.7653 5.87428 33.7195 5.85712 33.6851C5.83424 33.6507 5.8228 33.3182 5.82852 32.9398C5.83424 32.487 5.81708 32.2233 5.77132 32.1717C5.71984 32.1086 5.71984 32.0914 5.77704 32.0914C5.82852 32.0914 5.83424 31.7761 5.80564 30.727C5.78276 29.9818 5.75416 28.9557 5.74272 28.4512C5.737 27.9467 5.7084 26.9263 5.69125 26.1868C5.60545 22.8905 5.59401 23.2288 5.7656 23.0625C5.86284 22.9651 5.94292 22.9307 6.00012 22.9593C6.0516 22.9823 6.20603 23.0052 6.34903 23.0109C6.49202 23.0167 6.72082 23.051 6.86382 23.0854C7.08117 23.137 7.71035 23.2116 9.06596 23.3491C9.1918 23.3606 9.42059 23.395 9.57503 23.4237C9.73518 23.4581 9.94682 23.4695 10.0498 23.4523C10.1756 23.4294 10.2385 23.4409 10.2385 23.4867C10.2385 23.5326 10.3014 23.5441 10.433 23.5211C10.5646 23.4925 10.6847 23.5154 10.8105 23.5784C10.9478 23.6472 11.0107 23.6587 11.0393 23.6071C11.0679 23.5555 11.1365 23.5555 11.3139 23.6014C11.5598 23.6702 12.2233 23.7734 12.6409 23.8078C12.7839 23.8192 13.0527 23.8536 13.2415 23.888C13.4302 23.9224 13.9965 23.9912 14.4998 24.0428C15.0032 24.0887 15.4665 24.1517 15.5294 24.1804C15.5923 24.209 15.8268 24.2434 16.0442 24.2606C16.5475 24.3065 16.8678 24.3466 17.3026 24.4154C17.7773 24.4899 18.4465 24.5702 19.1901 24.639C19.928 24.7135 20.008 24.7192 20.4199 24.7995C20.5915 24.8282 20.7859 24.8568 20.8489 24.8568C21.0262 24.8568 23.4743 25.1607 24.1378 25.2696C24.3437 25.2982 24.6411 25.3384 24.7956 25.3556C25.1902 25.3957 25.8709 25.4874 26.2827 25.5562C26.4715 25.5906 26.7403 25.6307 26.8833 25.6422C27.7013 25.7225 27.89 25.7511 27.9529 25.797C27.993 25.8314 28.4563 25.9059 28.9825 25.9632C29.5145 26.0205 30.1093 26.0951 30.3152 26.1295C30.5211 26.1639 30.8014 26.1983 30.9444 26.2155C31.0874 26.2269 31.3963 26.2613 31.6308 26.2842C32.4144 26.3588 33.7815 26.2671 33.9531 26.1237C33.9988 26.0893 34.1075 26.0779 34.199 26.1008C34.2962 26.1237 34.4049 26.118 34.445 26.0893C34.485 26.0664 34.5994 26.0377 34.6909 26.032C35.1943 25.9919 35.4002 25.969 35.4631 25.9288C35.5317 25.883 35.5375 25.883 36.3497 25.7855C36.6643 25.7454 36.9445 25.6881 36.9789 25.6651C37.0075 25.6365 37.1333 25.6135 37.2649 25.6135C37.3907 25.6135 37.608 25.5849 37.751 25.5505C37.894 25.5161 38.1228 25.4759 38.2658 25.4645C38.8321 25.4186 39.0209 25.39 39.0952 25.3269C39.1353 25.2925 39.3755 25.2581 39.6272 25.2524C39.936 25.2466 40.0733 25.218 40.0561 25.1779C40.039 25.132 40.1591 25.1148 40.4508 25.1205C40.6796 25.132 40.9599 25.1033 41.0686 25.0632C41.3431 24.9657 42.0123 24.8626 42.367 24.8683C42.4699 24.8683 42.5672 24.8396 42.5843 24.811C42.6015 24.7766 42.733 24.7536 42.8703 24.7536C43.0076 24.7536 43.1391 24.725 43.1563 24.6963C43.1735 24.6619 43.265 24.639 43.3565 24.639C43.5567 24.639 43.7054 24.5817 43.6711 24.5243C43.6539 24.4957 43.734 24.5071 43.8484 24.5415C44.0257 24.5931 44.06 24.5931 44.1115 24.5071C44.1516 24.4326 44.1859 24.4211 44.2717 24.467C44.4318 24.553 44.6149 24.5358 44.6149 24.4326C44.6149 24.3753 44.6492 24.3524 44.7178 24.3753C45.0038 24.4613 45.1182 24.4727 45.1525 24.4154C45.1754 24.381 45.2898 24.3524 45.4157 24.3524C45.5529 24.3524 45.6444 24.3237 45.6616 24.2721C45.6902 24.2033 45.736 24.1976 45.879 24.2377C46.0048 24.2778 46.0906 24.2721 46.1421 24.232C46.1821 24.1918 46.2908 24.1804 46.388 24.1976C46.5024 24.2205 46.5825 24.2033 46.6454 24.146C46.7141 24.0772 46.7941 24.06 46.9886 24.0944C47.143 24.1173 47.246 24.1059 47.246 24.0715C47.246 24.0428 47.4405 24.0027 47.675 23.9797C47.9095 23.9568 48.144 23.9052 48.2012 23.8651C48.2699 23.8135 48.3442 23.8078 48.4586 23.8479C48.573 23.888 48.6474 23.888 48.7046 23.8364C48.7503 23.7963 48.8704 23.7791 48.9734 23.7963C49.0935 23.8135 49.1965 23.7906 49.2537 23.7447C49.3052 23.6988 49.5225 23.6472 49.7399 23.6358C49.9572 23.6186 50.3004 23.5784 50.5063 23.5441C50.7122 23.5154 50.9296 23.4867 50.9925 23.4867C51.0554 23.481 51.2728 23.4409 51.4787 23.3893C51.6846 23.3434 51.9248 23.309 52.0164 23.3147C52.1022 23.3205 52.2108 23.2918 52.2566 23.2574C52.3024 23.223 52.4053 23.2116 52.5083 23.2345C52.6284 23.2632 52.7313 23.246 52.8286 23.1829C52.9258 23.1141 52.9945 23.1026 53.0688 23.1428C53.1832 23.2058 53.6408 23.1026 53.7838 22.988C53.841 22.9364 53.881 22.9307 53.9096 22.9765C53.9554 23.051 54.2643 23.051 54.3157 22.9708C54.3386 22.9307 54.4416 22.9192 54.5731 22.9364C54.7276 22.9536 54.8134 22.9364 54.8591 22.8791C54.9106 22.8217 54.9907 22.8045 55.1108 22.8275C55.208 22.8504 55.311 22.8447 55.3339 22.8217C55.3796 22.7759 55.557 22.7529 56.026 22.73C56.1861 22.7243 56.3291 22.6899 56.352 22.6612C56.3921 22.6096 56.7753 22.5695 57.2214 22.5695C57.313 22.5695 57.4216 22.5466 57.4617 22.5122C57.5017 22.4835 57.5932 22.472 57.6733 22.4893C57.7591 22.5122 57.8449 22.495 57.8849 22.4491C57.9421 22.3918 58.1309 22.3689 58.5713 22.3689C59.1319 22.3689 59.1833 22.3746 59.1547 22.472ZM59.7725 24.7536C59.7725 24.7823 59.7439 24.811 59.7096 24.811C59.681 24.811 59.6695 24.7823 59.6867 24.7536C59.7038 24.7192 59.7324 24.6963 59.7496 24.6963C59.7611 24.6963 59.7725 24.7192 59.7725 24.7536ZM61.3741 26.1868C61.3741 26.2155 61.3512 26.2441 61.3168 26.2441C61.2882 26.2441 61.2597 26.2155 61.2597 26.1868C61.2597 26.1524 61.2882 26.1295 61.3168 26.1295C61.3512 26.1295 61.3741 26.1524 61.3741 26.1868ZM61.946 26.7257C61.946 26.7429 61.9232 26.7715 61.8888 26.7887C61.8602 26.8059 61.8316 26.7945 61.8316 26.7658C61.8316 26.7314 61.8602 26.7027 61.8888 26.7027C61.9232 26.7027 61.946 26.7142 61.946 26.7257ZM61.8888 27.9639C61.8888 27.9926 61.8488 28.004 61.803 27.9868C61.7573 27.9639 61.7344 27.9295 61.7516 27.9009C61.7859 27.8378 61.8888 27.8894 61.8888 27.9639ZM59.5837 28.0327C59.5666 28.0786 59.5494 28.0614 59.5494 27.9983C59.5437 27.9352 59.5609 27.9009 59.578 27.9238C59.5952 27.941 59.6009 27.9926 59.5837 28.0327ZM59.8011 28.1359C59.8182 28.1646 59.8068 28.1932 59.7782 28.1932C59.7439 28.1932 59.7153 28.1646 59.7153 28.1359C59.7153 28.1015 59.7267 28.0786 59.7382 28.0786C59.7553 28.0786 59.7839 28.1015 59.8011 28.1359ZM59.5437 28.5945C59.5437 28.6232 59.5151 28.6518 59.4808 28.6518C59.4522 28.6518 59.4407 28.6232 59.4579 28.5945C59.4751 28.5601 59.5037 28.5372 59.5208 28.5372C59.5323 28.5372 59.5437 28.5601 59.5437 28.5945ZM62.0032 29.1678C62.0032 29.1964 61.9632 29.2251 61.9174 29.2251C61.8717 29.2251 61.8316 29.1964 61.8316 29.1678C61.8316 29.1334 61.8717 29.1104 61.9174 29.1104C61.9632 29.1104 62.0032 29.1334 62.0032 29.1678ZM59.9441 32.378C59.9441 32.4067 59.9212 32.4354 59.8926 32.4354C59.8583 32.4354 59.8182 32.4067 59.8011 32.378C59.7839 32.3436 59.8068 32.3207 59.8526 32.3207C59.904 32.3207 59.9441 32.3436 59.9441 32.378ZM59.8068 34.138C59.7496 34.1953 59.6981 34.1093 59.7496 34.0348C59.7839 33.9717 59.7954 33.9717 59.8182 34.0348C59.8297 34.0749 59.824 34.1208 59.8068 34.138ZM60.9451 35.0724C60.9622 35.101 60.9508 35.1297 60.9222 35.1297C60.8879 35.1297 60.8593 35.101 60.8593 35.0724C60.8593 35.038 60.8707 35.015 60.8821 35.015C60.8993 35.015 60.9279 35.038 60.9451 35.0724Z" fill="#0074DF"/>
<path d="M33.7872 66.4068C33.7815 66.4125 32.3515 66.4297 30.6126 66.4469C27.3866 66.4813 27.2837 66.4928 27.2837 66.6992C27.2837 66.7794 27.4953 67.0947 27.8442 67.5247C27.9415 67.6565 28.0273 67.7884 28.0273 67.8285C28.0273 67.9087 28.7022 68.9349 28.9768 69.2731C29.0854 69.405 29.1712 69.5253 29.1712 69.5425C29.1712 69.6228 29.6117 70.3279 29.8576 70.6489C30.0063 70.8381 30.218 71.1649 30.3267 71.3712C30.4411 71.5776 30.584 71.8069 30.6527 71.8814C30.7156 71.9502 30.7728 72.0362 30.7728 72.0706C30.7728 72.0993 30.8758 72.2483 31.0016 72.3974C31.1274 72.5464 31.2304 72.6897 31.2304 72.7069C31.2304 72.7643 31.7566 73.5611 32.0712 73.9911C32.2256 74.186 32.4258 74.4955 32.5231 74.679C32.6203 74.8567 32.7347 75 32.7748 75C32.8606 75 33.3353 74.335 33.5183 73.9681C33.5813 73.842 33.7357 73.5955 33.8615 73.4235C34.1933 72.9649 34.4335 72.5923 34.7481 72.0764C34.9025 71.8241 35.1085 71.5146 35.2114 71.3884C35.3087 71.2623 35.5088 70.9528 35.6576 70.7005C35.8006 70.4483 36.0465 70.0585 36.201 69.8406C36.3554 69.6171 36.5899 69.2559 36.7272 69.0381C37.0532 68.4992 37.6996 67.5075 37.854 67.3183C37.8769 67.2839 37.9341 67.1692 37.9798 67.0603C38.0256 66.9514 38.0942 66.831 38.1343 66.8023C38.18 66.7679 38.2201 66.6648 38.2258 66.573L38.2372 66.4011H36.0179C34.7939 66.4011 33.7929 66.4068 33.7872 66.4068Z" fill="#0074DF"/>
<path d="M24.666 28.324H26.418V37H24.84L20.718 31.03V37H18.972V28.324H20.706L24.666 34.066V28.324ZM27.9807 37V35.092H29.9007V37H27.9807ZM38.3251 37H36.5071L35.0971 33.658H33.3391V37H31.5931V28.324H35.2531C35.9451 28.324 36.5111 28.434 36.9511 28.654C37.3911 28.874 37.7151 29.18 37.9231 29.572C38.1311 29.96 38.2351 30.408 38.2351 30.916C38.2351 31.372 38.1631 31.758 38.0191 32.074C37.8791 32.386 37.6931 32.646 37.4611 32.854C37.2331 33.062 36.9831 33.232 36.7111 33.364L38.3251 37ZM34.9411 32.308C35.4091 32.308 35.7791 32.182 36.0511 31.93C36.3271 31.678 36.4651 31.354 36.4651 30.958C36.4651 30.558 36.3331 30.242 36.0691 30.01C35.8051 29.778 35.4711 29.662 35.0671 29.662H33.3391V32.308H34.9411ZM39.5588 37V35.092H41.4788V37H39.5588ZM43.1712 28.324H44.9172V37H43.1712V28.324Z" fill="#F78D21"/>
</svg>